<svg width="26" height="26" viewBox="0 0 26 26" fill="none" xmlns="http://www.w3.org/2000/svg">
<g clip-path="url(#clip0_67_801)">
<path d="M18.2192 9.21091L11.6261 14.6L11.3159 14.8541C11.2478 14.9081 11.2033 14.9865 11.1918 15.0727L11.1224 15.6459L10.9318 17.2561C10.9336 17.2757 10.9275 17.2952 10.9149 17.3103C10.9023 17.3254 10.8842 17.3349 10.8646 17.3366C10.845 17.3384 10.8255 17.3323 10.8104 17.3197C10.7953 17.3071 10.7859 17.289 10.7841 17.2694L10.2478 15.6592L9.69386 14.012C9.67023 13.9382 9.67325 13.8585 9.70241 13.7867C9.73157 13.7148 9.785 13.6555 9.85341 13.6191L16.7139 9.68659L18.005 8.94796C18.1926 8.83864 18.3847 9.075 18.2192 9.21091Z" fill="white"/>
<path d="M22.4545 0H3.54545C2.60514 0 1.70334 0.373538 1.03844 1.03844C0.373538 1.70334 0 2.60514 0 3.54545L0 22.4545C0 23.3949 0.373538 24.2967 1.03844 24.9616C1.70334 25.6265 2.60514 26 3.54545 26H22.4545C23.3949 26 24.2967 25.6265 24.9616 24.9616C25.6265 24.2967 26 23.3949 26 22.4545V3.54545C26 2.60514 25.6265 1.70334 24.9616 1.03844C24.2967 0.373538 23.3949 0 22.4545 0ZM21.1087 7.52523L18.5708 18.7392C18.4511 19.2651 17.7834 19.503 17.3151 19.1824L13.4831 16.5824L11.5316 18.4275C11.452 18.5022 11.3554 18.5563 11.2502 18.5852C11.145 18.6141 11.0343 18.6168 10.9277 18.5933C10.8212 18.5697 10.722 18.5205 10.6388 18.4499C10.5556 18.3793 10.4909 18.2895 10.4502 18.1882L9.74557 16.12L9.04091 14.0518L5.26352 13.0177C5.15791 12.9947 5.06287 12.9374 4.99318 12.8547C4.9235 12.7721 4.88307 12.6687 4.87818 12.5607C4.8733 12.4527 4.90423 12.3462 4.96617 12.2576C5.0281 12.169 5.11758 12.1033 5.22068 12.0708L19.8132 6.81318L20.082 6.71716C20.6478 6.5192 21.2328 6.97716 21.1087 7.52523Z" fill="white"/>
</g>
<defs>
<clipPath id="clip0_67_801">
<rect width="26" height="26" rx="3" fill="white"/>
</clipPath>
</defs>
</svg>
