<svg width="26" height="26" viewBox="0 0 26 26" fill="none" xmlns="http://www.w3.org/2000/svg">
<path d="M24.1754 1.82457C22.3509 0 19.4147 0 13.5418 0H12.4582C6.58531 0 3.64914 0 1.82457 1.82457C0 3.64914 0 6.58531 0 12.4582V13.5418C0 19.4147 0 22.3509 1.82457 24.1754C3.64914 26 6.58531 26 12.4582 26H13.5418C19.4147 26 22.3509 26 24.1754 24.1754C26 22.3509 26 19.4147 26 13.5418V12.4582C26 6.58531 26 3.64914 24.1754 1.82457ZM21.1286 18.4168H19.2324C18.5093 18.4168 18.2975 17.84 17.0117 16.5547C15.8864 15.47 15.4045 15.3293 15.1232 15.3293C14.7413 15.3293 14.627 15.4375 14.627 15.9793V17.6795C14.627 18.1457 14.4782 18.4168 13.2727 18.4168C11.2638 18.4168 9.05582 17.1971 7.48922 14.948C5.13855 11.6538 4.49566 9.16348 4.49566 8.66125C4.49566 8.37992 4.60434 8.125 5.14566 8.125H7.04234C7.5268 8.125 7.7091 8.33727 7.8909 8.86184C8.81816 11.5629 10.3822 13.9237 11.0251 13.9237C11.2658 13.9237 11.3765 13.8125 11.3765 13.2006V10.4086C11.3059 9.12336 10.6229 9.01773 10.6229 8.5607C10.6229 8.34895 10.8042 8.125 11.1054 8.125H14.0852C14.4874 8.125 14.627 8.3398 14.627 8.82172V12.578C14.627 12.9792 14.8017 13.1198 14.9221 13.1198C15.1633 13.1198 15.3644 12.9792 15.8062 12.5374C17.1722 11.0109 18.1365 8.66125 18.1365 8.66125C18.2574 8.37992 18.4793 8.125 18.9617 8.125H20.8579C21.4312 8.125 21.5521 8.42004 21.4312 8.82172C21.19 9.92672 18.88 13.1803 18.88 13.1803C18.6789 13.5017 18.5986 13.6622 18.88 14.0238C19.0811 14.3051 19.7437 14.8672 20.1855 15.3898C21.0001 16.3059 21.614 17.0788 21.7852 17.6114C21.9416 18.1457 21.6704 18.4168 21.1286 18.4168Z" fill="white"/>
</svg>
