<svg width="26" height="26" viewBox="0 0 26 26" fill="none" xmlns="http://www.w3.org/2000/svg">
<g clip-path="url(#clip0_67_800)">
<path d="M13.134 6.15527C9.4433 6.15527 6.45361 9.12435 6.45361 12.7944C6.45361 14.2377 6.92784 15.5986 7.73196 16.6914L6.8866 19.1656L9.46392 18.3408C10.5155 19.0419 11.7938 19.4336 13.1546 19.4336C16.8454 19.4336 19.8557 16.4646 19.8557 12.7944C19.8351 9.12435 16.8247 6.15527 13.134 6.15527ZM17.0516 15.5367C16.8866 15.9903 16.0825 16.4233 15.732 16.4646C15.3814 16.5058 15.3814 16.7532 13.3814 15.9903C11.4021 15.2068 10.1443 13.2068 10.0412 13.0625C9.93815 12.9388 9.23712 12.0109 9.23712 11.0625C9.23712 10.114 9.73196 9.63981 9.91753 9.45424C10.1031 9.26868 10.3093 9.20682 10.433 9.20682C10.5567 9.20682 10.701 9.22744 10.8041 9.22744C10.9278 9.22744 11.0722 9.16558 11.2371 9.55733C11.4021 9.94909 11.7938 10.8975 11.8351 11.0006C11.8763 11.1037 11.9175 11.2068 11.8557 11.3305C11.7938 11.4542 11.7526 11.5367 11.6701 11.6604C11.567 11.7635 11.4639 11.9079 11.3814 11.9903C11.2784 12.0934 11.1753 12.1965 11.299 12.3821C11.4227 12.5676 11.8144 13.2068 12.3918 13.7223C13.134 14.3821 13.7732 14.5883 13.9588 14.6914C14.1443 14.7944 14.268 14.7738 14.3711 14.6501C14.4949 14.5264 14.866 14.0934 14.9897 13.8872C15.1134 13.7017 15.2577 13.7223 15.4227 13.7841C15.6083 13.846 16.5567 14.3202 16.7629 14.4233C16.9485 14.5264 17.0928 14.5676 17.134 14.6501C17.1959 14.6914 17.1959 15.0831 17.0516 15.5367Z" fill="white"/>
<path d="M19.4639 0.0107422H6.51546C2.92784 0.0107422 0 2.93858 0 6.52621V19.4953C0 23.0623 2.92784 25.9901 6.51546 25.9901H19.4845C23.0722 25.9901 26 23.0623 26 19.4747V6.52621C25.9794 2.93858 23.0515 0.0107422 19.4639 0.0107422ZM13.134 20.6912C11.732 20.6912 10.433 20.3406 9.27835 19.7015L4.86598 21.1035L6.30928 16.8767C5.58763 15.6808 5.17526 14.2788 5.17526 12.7942C5.17526 8.42311 8.74227 4.89734 13.134 4.89734C17.5258 4.89734 21.0928 8.42311 21.0928 12.7942C21.0928 17.1654 17.5258 20.6912 13.134 20.6912Z" fill="white"/>
</g>
<defs>
<clipPath id="clip0_67_800">
<rect width="26" height="26" fill="white"/>
</clipPath>
</defs>
</svg>
