<svg width="26" height="26" viewBox="0 0 26 26" fill="none" xmlns="http://www.w3.org/2000/svg">
<path d="M23.5944 13.1628C23.3257 11.9955 22.3709 11.1344 21.2216 11.0062C18.5008 10.7023 15.7456 10.7009 13.0039 10.7023C10.261 10.7009 7.50639 10.7023 4.78473 11.0062C3.63608 11.1347 2.68184 11.9958 2.41346 13.1628C2.03095 14.8249 2.02637 16.6394 2.02637 18.3509C2.02637 20.0624 2.02637 21.8765 2.40887 23.5387C2.67725 24.7057 3.63149 25.5668 4.78072 25.6952C7.5018 25.9995 10.2564 26.0006 12.999 25.9995C15.7419 26.0009 18.496 25.9995 21.2179 25.6952C22.3666 25.5668 23.3214 24.7057 23.5898 23.5387C23.972 21.8765 23.974 20.0624 23.974 18.3509C23.9737 16.6391 23.9766 14.8249 23.5944 13.1628ZM8.28659 14.451H6.69809V22.8919H5.22257V14.451H3.66303V13.0684H8.28659V14.451ZM12.2942 22.8921H10.967V22.0936C10.4397 22.698 9.93902 22.9928 9.45129 22.9928C9.02378 22.9928 8.72959 22.8196 8.59683 22.4489C8.52458 22.2275 8.47984 21.8771 8.47984 21.3604V15.5725H9.80598V20.9616C9.80598 21.2724 9.80598 21.4338 9.81802 21.4774C9.84985 21.6833 9.95049 21.7877 10.1283 21.7877C10.3944 21.7877 10.6725 21.5826 10.9667 21.1666V15.5725H12.294L12.2942 22.8921ZM17.333 20.6952C17.333 21.3722 17.2874 21.8599 17.1988 22.1702C17.0216 22.7147 16.6669 22.9928 16.1393 22.9928C15.6674 22.9928 15.212 22.7307 14.7685 22.1831V22.8924H13.4423V13.0684H14.7685V16.2767C15.1968 15.7494 15.6516 15.4827 16.1393 15.4827C16.6669 15.4827 17.0219 15.7606 17.1988 16.3085C17.288 16.603 17.333 17.087 17.333 17.78V20.6952ZM22.3385 19.474H19.6859V20.7715C19.6859 21.449 19.9075 21.7874 20.3635 21.7874C20.69 21.7874 20.8801 21.6099 20.9558 21.2555C20.9682 21.1835 20.9857 20.8888 20.9857 20.3569H22.3387V20.5504C22.3387 20.9779 22.3224 21.2724 22.3104 21.4049C22.269 21.6898 22.1631 21.9616 22.0007 22.1994C21.6334 22.731 21.0892 22.9931 20.3964 22.9931C19.7025 22.9931 19.1744 22.7433 18.791 22.2436C18.5097 21.8771 18.3652 21.3002 18.3652 20.5223V17.9586C18.3652 17.1761 18.4934 16.6038 18.7752 16.2339C19.1583 15.733 19.6862 15.4836 20.3637 15.4836C21.0292 15.4836 21.5568 15.733 21.9284 16.2339C22.2063 16.6038 22.339 17.1761 22.339 17.9586V19.474H22.3385Z" fill="white"/>
<path d="M20.3517 16.6772C19.9084 16.6772 19.6862 17.0158 19.6862 17.6925V18.3698H21.0123V17.6925C21.012 17.0158 20.7904 16.6772 20.3517 16.6772ZM15.4296 16.6772C15.2111 16.6772 14.9898 16.7804 14.7681 16.9998V21.461C14.9895 21.683 15.2111 21.7879 15.4296 21.7879C15.8121 21.7879 16.0065 21.461 16.0065 20.8001V17.6759C16.0065 17.0158 15.8121 16.6772 15.4296 16.6772ZM16.1705 10.0279C16.6594 10.0279 17.1681 9.73082 17.7017 9.11951V9.92638H19.0422V2.52898H17.7017V8.18276C17.4046 8.60253 17.1231 8.81013 16.855 8.81013C16.6755 8.81013 16.57 8.70404 16.5407 8.49616C16.5244 8.45229 16.5244 8.28914 16.5244 7.97516V2.52898H15.1882V8.37831C15.1882 8.90073 15.2329 9.25428 15.3069 9.47821C15.4417 9.85297 15.739 10.0279 16.1705 10.0279ZM6.83884 5.90611V9.92638H8.32526V5.90611L10.1133 0H8.61027L7.5961 3.89812L6.54093 0H4.97681C5.2902 0.920123 5.61622 1.84483 5.92962 2.76582C6.40645 4.15016 6.70408 5.19386 6.83884 5.90611ZM12.1055 10.0279C12.7771 10.0279 13.2989 9.77527 13.6691 9.27062C13.9504 8.90045 14.0851 8.31724 14.0851 7.53102V4.94068C14.0851 4.14987 13.9507 3.57182 13.6691 3.19821C13.2989 2.69213 12.7774 2.43952 12.1055 2.43952C11.4375 2.43952 10.9159 2.69213 10.5449 3.19821C10.2601 3.57182 10.1254 4.14987 10.1254 4.94068V7.53102C10.1254 8.31724 10.2601 8.90045 10.5449 9.27062C10.9156 9.77527 11.4375 10.0279 12.1055 10.0279ZM11.4658 4.67201C11.4658 3.98758 11.6734 3.64637 12.1055 3.64637C12.5376 3.64637 12.7447 3.9873 12.7447 4.67201V7.78363C12.7447 8.46806 12.5376 8.81041 12.1055 8.81041C11.6734 8.81041 11.4658 8.46806 11.4658 7.78363V4.67201Z" fill="white"/>
</svg>
