<svg width="20" height="21" viewBox="0 0 20 21" fill="none" xmlns="http://www.w3.org/2000/svg">
<path d="M5.17008 4.70976H5.25351L5.26846 4.62767C5.35369 4.15965 5.46957 3.69524 5.62695 3.25336C5.92879 2.40582 6.3923 1.61224 7.10923 1.0307C7.83163 0.444729 8.77956 0.1 9.9999 0.1C11.2202 0.1 12.1682 0.444729 12.8906 1.0307C13.6075 1.61224 14.071 2.40582 14.3729 3.25335C14.5303 3.69524 14.6462 4.15965 14.7314 4.62767L14.7463 4.70976H14.8298H17.2129C17.6727 4.70976 18.062 5.056 18.1193 5.51936L19.8928 19.8608C19.9612 20.4138 19.5347 20.9 18.9864 20.9H1.01359C0.465306 20.9 0.0388371 20.4138 0.107219 19.8608L1.88074 5.51936C1.93804 5.056 2.32732 4.70976 2.78711 4.70976H5.17008ZM6.10384 4.58991L6.07957 4.70976H6.20185H13.798H13.9203L13.896 4.58991C13.8229 4.22862 13.7288 3.87311 13.6078 3.53323C13.3395 2.78013 12.948 2.13318 12.3823 1.67433C11.8221 1.21992 11.0598 0.92439 9.9999 0.92439C8.93995 0.92439 8.17772 1.21992 7.61752 1.67433C7.05185 2.13318 6.66028 2.78013 6.39208 3.53323C6.27103 3.8731 6.17698 4.22862 6.10384 4.58991ZM5.12726 5.64414L5.1383 5.53415H5.02776H2.78711H2.69872L2.68787 5.62187L0.914346 19.9633L0.900462 20.0756H1.01359H18.9864H19.0995L19.0857 19.9633L17.3121 5.62187L17.3013 5.53415H17.2129H14.9721H14.8616L14.8726 5.64414C14.9671 6.58541 14.9671 7.47873 14.9671 8.164V8.19512C14.9671 8.42379 14.784 8.60732 14.5604 8.60732C14.3368 8.60732 14.1537 8.42379 14.1537 8.19512C14.1537 7.46062 14.1521 6.54985 14.0527 5.62348L14.0431 5.53415H13.9533H6.04656H5.95672L5.94713 5.62348C5.84774 6.54985 5.84619 7.46062 5.84618 8.19513C5.84617 8.42379 5.66306 8.60732 5.43945 8.60732C5.21583 8.60731 5.03273 8.42378 5.03274 8.19511L5.03273 8.16369C5.03272 7.47847 5.03278 6.58527 5.12726 5.64414Z" fill="#222222" stroke="#222222" stroke-width="0.2" stroke-linecap="round"/>
</svg>
