<svg width="196" height="20" viewBox="0 0 196 20" fill="none" xmlns="http://www.w3.org/2000/svg">
<path d="M185.71 19.7835L195.736 10.634C196.088 10.3133 196.088 9.69558 195.736 9.37489L185.71 0.225374C185.629 0.149116 185.534 0.0899965 185.431 0.0514582C185.327 0.0129198 185.217 -0.00426766 185.107 0.000895671C184.996 0.00605901 184.888 0.03347 184.788 0.0815335C184.689 0.129597 184.599 0.197352 184.526 0.280856C184.452 0.364359 184.395 0.461942 184.359 0.567924C184.323 0.673905 184.307 0.78617 184.314 0.89818C184.321 1.01019 184.35 1.11971 184.398 1.22036C184.447 1.32101 184.515 1.41079 184.599 1.48446L193.006 9.15827L0.832214 9.83151C0.611496 9.83151 0.399826 9.92066 0.243759 10.0793C0.0876918 10.238 -4.56927e-07 10.4533 -4.66736e-07 10.6777C-4.76546e-07 10.9021 0.0876918 11.1173 0.243759 11.276C0.399826 11.4347 0.611495 11.5238 0.832214 11.5238L193.006 10.8506L184.598 18.5236C184.516 18.5976 184.45 18.6873 184.402 18.7875C184.355 18.8878 184.328 18.9965 184.322 19.1076C184.316 19.2186 184.332 19.3297 184.368 19.4345C184.405 19.5394 184.461 19.6358 184.534 19.7183C184.607 19.8012 184.696 19.8686 184.794 19.9167C184.893 19.9648 185 19.9927 185.109 19.9987C185.218 20.0048 185.328 19.9889 185.431 19.952C185.534 19.915 185.629 19.8578 185.71 19.7835Z" fill="#1F4634"/>
</svg>
