<svg width="26" height="26" xmlns="http://www.w3.org/2000/svg">

 <g>
  <title>background</title>
  <rect fill="none" id="canvas_background" height="28" width="28" y="-1" x="-1"/>
 </g>
 <g>
  <title>Layer 1</title>
  <rect stroke="null" rx="6" id="svg_2" height="26.12513" width="26.125128" y="-0.062565" x="-0.062565" fill-opacity="null" stroke-opacity="null" stroke-width="null" fill="null"/>
  <path stroke="null" fill="#ffffff" id="svg_1" d="m12.155857,9.196308a4.592939,4.592939 0 0 1 3.946241,2.256058c-0.565779,0.56837 -1.089197,1.093272 -1.675604,1.681196c-0.083619,-0.161931 -0.149864,-0.302112 -0.226959,-0.435786a2.338318,2.338318 0 0 0 -2.016588,-1.213883a2.258916,2.258916 0 0 0 -1.5431,0.622705c-1.183683,1.09542 -2.320644,2.244116 -3.419633,3.423219a2.260464,2.260464 0 0 0 0.084709,3.218925a2.380554,2.380554 0 0 0 1.640839,0.683563a2.02297,2.02297 0 0 0 1.505112,-0.65856c0.162895,-0.174978 0.688476,-0.69443 1.280317,-1.271503a5.461399,5.461399 0 0 0 3.013463,0.295589c-1.5887,1.635501 -3.441304,3.454761 -4.732488,3.761217a4.709522,4.709522 0 0 1 -1.09354,0.12824a4.59714,4.59714 0 0 1 -3.447843,-7.648479c1.170636,-1.249754 2.374947,-2.47125 3.629202,-3.636231a4.463356,4.463356 0 0 1 3.055873,-1.20627m4.925314,-4.883599a4.740449,4.740449 0 0 0 -1.090271,0.12824a16.389551,16.389551 0 0 0 -4.73252,3.753588a5.486987,5.486987 0 0 1 0.896986,-0.084693a5.653483,5.653483 0 0 1 2.069802,0.393297c0.600513,-0.523796 1.107645,-1.020362 1.382385,-1.317119a1.928942,1.928942 0 0 1 1.441048,-0.623795a2.390174,2.390174 0 0 1 1.697307,0.740078a2.262739,2.262739 0 0 1 0.034749,3.166754c-1.105481,1.173684 -2.242458,2.321275 -3.419633,3.423234a2.241052,2.241052 0 0 1 -1.539862,0.623779a2.342251,2.342251 0 0 1 -2.020901,-1.212809c-0.077096,-0.134764 -0.141161,-0.276035 -0.23999,-0.470567c-0.579884,0.606404 -1.091361,1.142173 -1.650585,1.726828a4.551808,4.551808 0 0 0 3.937601,2.243042a4.43453,4.43453 0 0 0 3.049302,-1.199762c1.232537,-1.15304 2.418384,-2.358204 3.579242,-3.580743a4.598404,4.598404 0 0 0 -3.394661,-7.709354" class="cls-1"/>
  <path id="svg_3" d="m10.593737,8.15232" opacity="0.5" fill-opacity="null" stroke-opacity="null" stroke-width="null" stroke="null" fill="null"/>
  <path id="svg_4" d="m21.968793,11.902338" opacity="0.5" fill-opacity="null" stroke-opacity="null" stroke-width="null" stroke="null" fill="null"/>
 </g>
</svg>