<svg width="20" height="20" viewBox="0 0 20 20" fill="none" xmlns="http://www.w3.org/2000/svg">
<path d="M0.523926 3.12927H4.25777C4.37831 3.72436 4.70806 4.26035 5.19065 4.64562C5.67324 5.0309 6.27872 5.24153 6.9036 5.24153C7.52847 5.24153 8.13395 5.0309 8.61654 4.64562C9.09914 4.26035 9.42888 3.72436 9.54942 3.12927H19.4761C19.615 3.12927 19.7483 3.0757 19.8465 2.98033C19.9448 2.88497 20 2.75563 20 2.62077C20 2.4859 19.9448 2.35656 19.8465 2.2612C19.7483 2.16583 19.615 2.11226 19.4761 2.11226H9.54942C9.42888 1.51717 9.09914 0.98118 8.61654 0.595908C8.13395 0.210637 7.52847 0 6.9036 0C6.27872 0 5.67324 0.210637 5.19065 0.595908C4.70806 0.98118 4.37831 1.51717 4.25777 2.11226H0.523926C0.384972 2.11226 0.25171 2.16583 0.153454 2.2612C0.0551992 2.35656 0 2.4859 0 2.62077C0 2.75563 0.0551992 2.88497 0.153454 2.98033C0.25171 3.0757 0.384972 3.12927 0.523926 3.12927ZM6.90185 1.02067C7.22792 1.02067 7.54666 1.11451 7.81777 1.29033C8.08889 1.46615 8.3002 1.71605 8.42498 2.00843C8.54976 2.30081 8.58241 2.62254 8.51879 2.93293C8.45518 3.24332 8.29817 3.52843 8.0676 3.75221C7.83704 3.97598 7.54328 4.12838 7.22348 4.19012C6.90368 4.25186 6.5722 4.22017 6.27095 4.09906C5.96971 3.97796 5.71223 3.77287 5.53107 3.50973C5.34992 3.2466 5.25323 2.93724 5.25323 2.62077C5.25415 2.19667 5.42814 1.7902 5.73712 1.49031C6.0461 1.19043 6.46489 1.02156 6.90185 1.02067ZM19.4761 9.49577H15.6863C15.5641 8.90253 15.2338 8.36874 14.7517 7.9852C14.2697 7.60166 13.6656 7.39205 13.0423 7.39205C12.4189 7.39205 11.8148 7.60166 11.3328 7.9852C10.8507 8.36874 10.5205 8.90253 10.3982 9.49577H0.523926C0.384972 9.49577 0.25171 9.54934 0.153454 9.64471C0.0551992 9.74007 0 9.86941 0 10.0043C0 10.1391 0.0551992 10.2685 0.153454 10.3638C0.25171 10.4592 0.384972 10.5128 0.523926 10.5128H10.3982C10.5205 11.106 10.8507 11.6398 11.3328 12.0233C11.8148 12.4069 12.4189 12.6165 13.0423 12.6165C13.6656 12.6165 14.2697 12.4069 14.7517 12.0233C15.2338 11.6398 15.5641 11.106 15.6863 10.5128H19.4761C19.615 10.5128 19.7483 10.4592 19.8465 10.3638C19.9448 10.2685 20 10.1391 20 10.0043C20 9.86941 19.9448 9.74007 19.8465 9.64471C19.7483 9.54934 19.615 9.49577 19.4761 9.49577ZM13.0423 11.6044C12.7162 11.6044 12.3975 11.5105 12.1263 11.3347C11.8552 11.1589 11.6439 10.909 11.5191 10.6166C11.3944 10.3242 11.3617 10.0025 11.4253 9.69211C11.4889 9.38172 11.6459 9.09661 11.8765 8.87283C12.1071 8.64906 12.4008 8.49666 12.7206 8.43492C13.0404 8.37318 13.3719 8.40487 13.6732 8.52597C13.9744 8.64708 14.2319 8.85217 14.413 9.11531C14.5942 9.37844 14.6909 9.6878 14.6909 10.0043C14.69 10.4284 14.516 10.8348 14.207 11.1347C13.898 11.4346 13.4792 11.6035 13.0423 11.6044ZM19.4761 16.8793H10.0908C9.96853 16.286 9.63827 15.7522 9.15621 15.3687C8.67415 14.9852 8.07007 14.7756 7.44673 14.7756C6.8234 14.7756 6.21932 14.9852 5.73726 15.3687C5.2552 15.7522 4.92493 16.286 4.80265 16.8793H0.523926C0.384972 16.8793 0.25171 16.9328 0.153454 17.0282C0.0551992 17.1236 0 17.2529 0 17.3878C0 17.5226 0.0551992 17.652 0.153454 17.7474C0.25171 17.8427 0.384972 17.8963 0.523926 17.8963H4.80265C4.92493 18.4895 5.2552 19.0233 5.73726 19.4069C6.21932 19.7904 6.8234 20 7.44673 20C8.07007 20 8.67415 19.7904 9.15621 19.4069C9.63827 19.0233 9.96853 18.4895 10.0908 17.8963H19.4761C19.615 17.8963 19.7483 17.8427 19.8465 17.7474C19.9448 17.652 20 17.5226 20 17.3878C20 17.2529 19.9448 17.1236 19.8465 17.0282C19.7483 16.9328 19.615 16.8793 19.4761 16.8793ZM7.44673 18.9879C7.12067 18.9879 6.80192 18.894 6.53081 18.7182C6.2597 18.5424 6.04839 18.2925 5.92361 18.0001C5.79883 17.7077 5.76618 17.386 5.82979 17.0756C5.8934 16.7652 6.05042 16.4801 6.28098 16.2563C6.51155 16.0326 6.8053 15.8802 7.1251 15.8184C7.44491 15.7567 7.77639 15.7884 8.07763 15.9095C8.37888 16.0306 8.63636 16.2357 8.81751 16.4988C8.99866 16.7619 9.09536 17.0713 9.09536 17.3878C9.09536 17.8122 8.92166 18.2191 8.61248 18.5192C8.30331 18.8193 7.88398 18.9879 7.44673 18.9879Z" fill="#1F4634"/>
</svg>
