<svg width="20" height="20" viewBox="0 0 20 20" fill="none" xmlns="http://www.w3.org/2000/svg">
<path fill-rule="evenodd" clip-rule="evenodd" d="M8.65 15.4C4.92208 15.4 1.9 12.3779 1.9 8.65C1.9 4.92208 4.92208 1.9 8.65 1.9C12.3779 1.9 15.4 4.92208 15.4 8.65C15.4 12.3779 12.3779 15.4 8.65 15.4ZM1 8.65C1 4.42502 4.42502 1 8.65 1C12.875 1 16.3 4.42502 16.3 8.65C16.3 10.6006 15.57 12.3806 14.3683 13.7319L18.8682 18.2318C19.0439 18.4075 19.0439 18.6925 18.8682 18.8682C18.6925 19.0439 18.4075 19.0439 18.2318 18.8682L13.7319 14.3683C12.3806 15.57 10.6006 16.3 8.65 16.3C4.42502 16.3 1 12.875 1 8.65Z" fill="#222222" stroke="#222222" stroke-width="0.2" stroke-linecap="round"/>
</svg>
