<svg width="30" height="18" viewBox="0 0 30 18" fill="none" xmlns="http://www.w3.org/2000/svg">
<path d="M20.2137 17.8051L29.2403 9.57057C29.5573 9.28195 29.5573 8.72602 29.2403 8.4374L20.2137 0.202837C20.1408 0.134204 20.0552 0.0809968 19.9618 0.0463123C19.8685 0.0116278 19.7693 -0.00384091 19.67 0.000806095C19.5708 0.0054531 19.4734 0.030123 19.3836 0.0733802C19.2938 0.116637 19.2134 0.177617 19.147 0.25277C19.0806 0.327923 19.0296 0.415747 18.9969 0.511131C18.9642 0.606515 18.9505 0.707553 18.9566 0.808362C18.9628 0.909171 18.9885 1.00774 19.0325 1.09832C19.0764 1.18891 19.1377 1.26971 19.2126 1.33601L26.7827 8.24244L0.749693 8.09962C0.55097 8.09962 0.360384 8.17986 0.219865 8.32267C0.0793472 8.46549 0.000403987 8.65919 0.000403978 8.86117C0.00040397 9.06314 0.0793472 9.25684 0.219865 9.39966C0.360384 9.54248 0.55097 9.62271 0.749693 9.62271L26.7827 9.76553L19.2119 16.6712C19.1384 16.7378 19.0787 16.8186 19.036 16.9088C18.9934 16.999 18.9687 17.0969 18.9634 17.1968C18.9581 17.2967 18.9723 17.3968 19.0052 17.4911C19.038 17.5854 19.0889 17.6722 19.1549 17.7465C19.2206 17.8211 19.3001 17.8817 19.3889 17.925C19.4777 17.9683 19.574 17.9934 19.6723 17.9989C19.7707 18.0043 19.8691 17.99 19.962 17.9568C20.0549 17.9235 20.1404 17.872 20.2137 17.8051Z" fill="#1F4634"/>
</svg>
