<svg viewBox="0 0 70 24" fill="none" xmlns="http://www.w3.org/2000/svg">
<path d="M56.8015 23.7402L69.0029 12.7608C69.4313 12.3759 69.4313 11.6347 69.0029 11.2499L56.8015 0.270449C56.7029 0.178939 56.5872 0.107996 56.461 0.0617498C56.3349 0.0155038 56.2008 -0.00512121 56.0666 0.0010748C55.9324 0.0072708 55.8008 0.040164 55.6794 0.0978402C55.5581 0.155516 55.4493 0.236823 55.3596 0.337027C55.2698 0.437231 55.2009 0.55433 55.1567 0.681508C55.1125 0.808686 55.0941 0.943404 55.1023 1.07782C55.1106 1.21223 55.1454 1.34365 55.2048 1.46443C55.2642 1.58521 55.347 1.69294 55.4483 1.78135L65.6808 10.9899L1.51283 11.1803C1.24422 11.1803 0.986595 11.2873 0.796653 11.4777C0.606712 11.6682 0.499999 11.9264 0.499999 12.1957C0.499999 12.465 0.606712 12.7233 0.796653 12.9137C0.986595 13.1041 1.24422 13.2111 1.51283 13.2111L65.6808 13.0207L55.4473 22.2283C55.348 22.3171 55.2672 22.4248 55.2096 22.5451C55.1519 22.6653 55.1186 22.7958 55.1114 22.9291C55.1043 23.0623 55.1235 23.1957 55.1679 23.3215C55.2123 23.4472 55.2811 23.563 55.3703 23.662C55.4591 23.7614 55.5666 23.8423 55.6866 23.9C55.8066 23.9578 55.9368 23.9912 56.0697 23.9985C56.2026 24.0058 56.3357 23.9867 56.4612 23.9424C56.5868 23.898 56.7024 23.8293 56.8015 23.7402Z" fill="#1F4634"/>
</svg>
