<svg width="20" height="20" viewBox="0 0 20 20" fill="none" xmlns="http://www.w3.org/2000/svg">
<path d="M18.9626 15.221C18.8527 14.6827 18.4973 14.2016 17.9888 13.9008C17.0465 13.3444 16.0734 12.8122 15.1323 12.2972L14.486 11.9434C13.6691 11.495 13.1071 11.5782 12.7792 11.7273C12.4668 11.8696 12.0572 12.2121 11.8773 13.0373C11.8747 13.0512 11.8728 13.0653 11.8717 13.0794C11.8524 13.1558 11.8145 13.2263 11.7612 13.2843C11.708 13.3424 11.6412 13.3864 11.5667 13.4122C11.3589 13.4867 11.1135 13.4378 10.9117 13.2797C9.36794 12.0693 7.9726 10.6806 6.75474 9.14266C6.59815 8.94578 6.54921 8.70486 6.62374 8.49858C6.65838 8.40183 6.75286 8.23244 7.01411 8.17635H7.01486C7.02728 8.17484 7.04046 8.17258 7.05251 8.16995C7.88932 7.98512 8.22172 7.5556 8.35385 7.2281C8.50254 6.85919 8.55261 6.22829 7.94654 5.31806C7.4903 4.63558 7.10935 3.88986 6.74082 3.16861C6.57292 2.84035 6.40579 2.51248 6.23074 2.18949C5.88442 1.54767 5.42291 1.14827 4.89514 1.03383C4.41782 0.929558 3.91415 1.06771 3.43607 1.42909C2.96252 1.79085 2.45922 2.18874 1.98566 2.64573C0.964766 3.6399 0.731751 4.89683 1.31071 6.28099C3.77035 12.1621 8.00677 16.3684 13.9025 18.7832C14.3652 18.9729 14.8139 19.067 15.2434 19.067C16.0196 19.067 16.733 18.7591 17.3481 18.1497C17.8506 17.6554 18.2907 17.0862 18.6667 16.5875C18.8098 16.3935 18.9102 16.1715 18.9613 15.936C19.0123 15.7004 19.0125 15.4568 18.9626 15.221ZM18.0629 16.1384C17.706 16.6115 17.2859 17.1547 16.8192 17.614C16.0734 18.3526 15.2133 18.508 14.1882 18.0864C8.48409 15.7499 4.38507 11.6802 2.00561 5.99038C1.5426 4.88478 1.70823 3.96703 2.50966 3.1863C2.95424 2.75716 3.4372 2.37583 3.89232 2.02838C4.13361 1.84543 4.36399 1.7532 4.58007 1.7532C4.63277 1.7532 4.68472 1.75885 4.73591 1.76977C5.04158 1.83639 5.32993 2.10479 5.56859 2.54711C5.74062 2.8652 5.90513 3.1878 6.07038 3.51079C6.4487 4.25161 6.83982 5.01729 7.32015 5.73553C7.65104 6.23243 7.76999 6.66232 7.65556 6.94653C7.54451 7.22283 7.20873 7.35873 6.93092 7.42573C6.89866 7.42684 6.86683 7.43346 6.83681 7.44531C6.62699 7.48652 6.43158 7.58183 6.26995 7.72181C6.10831 7.86179 5.98605 8.04158 5.91529 8.24335C5.75192 8.69696 5.84527 9.20816 6.16487 9.61057C7.41943 11.1946 8.85671 12.625 10.4468 13.8718C10.8545 14.1918 11.3684 14.284 11.8223 14.1203C12.0215 14.0501 12.1992 13.9295 12.3379 13.7702C12.4766 13.611 12.5718 13.4185 12.614 13.2116C12.617 13.1967 12.6192 13.1816 12.6204 13.1664C12.6855 12.8841 12.8199 12.5362 13.0909 12.4124C13.4 12.2724 13.8235 12.4387 14.1239 12.6032L14.771 12.9579C15.7064 13.4698 16.6742 13.9991 17.6055 14.549C17.9315 14.7418 18.1574 15.0418 18.2252 15.3719C18.2816 15.6467 18.2229 15.92 18.0629 16.1384Z" fill="#1F4634" stroke="#1F4634" stroke-width="0.2"/>
</svg>
