<svg xmlns="http://www.w3.org/2000/svg" viewBox="0 0 26 26"><path d="M24.2 1.8C22.4 0 19.4 0 13.5 0h-1c-6 0-8.9 0-10.7 1.8S0 6.6 0 12.5v1c0 6 0 8.9 1.8 10.7S6.6 26 12.5 26h1c6 0 8.9 0 10.7-1.8S26 19.4 26 13.5v-1c0-6 0-8.9-1.8-10.7m-3 16.6h-2c-.7 0-.9-.6-2.2-1.8q-1.6-1.5-1.9-1.3-.5-.1-.5.7v1.7c0 .4-.1.7-1.3.7q-3.2 0-5.8-3.5a14 14 0 0 1-3-6.2q0-.5.6-.6h2q.5 0 .8.8c1 2.7 2.5 5 3.1 5q.4.2.4-.7v-2.8c0-1.3-.8-1.4-.8-1.8q0-.5.5-.5h3q.6 0 .5.7v3.8q0 .5.3.5.4 0 1-.6C17.1 11 18 8.7 18 8.7q.2-.5.9-.6h1.9q.8 0 .5.7c-.2 1.1-2.5 4.4-2.5 4.4q-.4.4 0 .8l1.3 1.4q1.3 1.5 1.6 2.2.2.8-.7.8" /></svg>