<svg xmlns="http://www.w3.org/2000/svg" viewBox="0 0 26 26"><path d="M13.1 6.2a6.7 6.7 0 0 0-5.4 10.5L7 19.2l2.6-.9q1.5 1 3.7 1.1c3.6 0 6.7-3 6.7-6.6 0-3.7-3-6.6-6.8-6.6m4 9.3c-.2.5-1 1-1.4 1s-.3.3-2.3-.5-3.3-2.8-3.4-3c0 0-.8-1-.8-2s.5-1.4.7-1.5l.5-.3h.4q.2-.1.4.4l.6 1.4v.3l-.1.4-.3.3q-.2 0-.1.4l1 1.3q1.3 1 1.7 1h.4c0-.2.5-.6.6-.8q.2-.3.4-.1l1.4.6.3.3q.2.1 0 .8"/><path d="M19.5 0h-13C3 0 0 3 0 6.5v13C0 23.1 3 26 6.5 26h13c3.6 0 6.5-3 6.5-6.5v-13C26 3 23 0 19.5 0M13 20.7q-2.1 0-3.8-1l-4.4 1.4 1.4-4.2a7.9 7.9 0 0 1 6.8-12 8 8 0 0 1 8 7.9 8 8 0 0 1-8 7.9"/></svg>