<svg width="24" height="24" viewBox="0 0 24 24" fill="none" xmlns="http://www.w3.org/2000/svg">
<path d="M0 24L1.38339 17.1966C0.572473 15.5557 0.154695 13.7487 0.163133 11.9184C0.163133 5.34918 5.51237 0 12.0815 0C18.651 0 24 5.34918 24 11.9184C24 18.4876 18.651 23.8368 12.0815 23.8368C10.2531 23.842 8.44859 23.4218 6.81052 22.6095L0 24ZM6.97365 21.4178L7.15094 21.5099C8.67477 22.2977 10.3661 22.7066 12.0815 22.7018C18.0266 22.7018 22.8649 17.8635 22.8649 11.9184C22.8649 5.97336 18.0266 1.13502 12.0815 1.13502C6.13644 1.13502 1.29815 5.97336 1.29815 11.9184C1.29335 13.6339 1.70224 15.3252 2.49015 16.849L2.58241 17.0263L1.45426 22.5457L6.97365 21.4178Z" fill="#1F4634"/>
<path d="M15.4447 18.7289H14.9196C9.59893 18.7289 5.27149 14.4015 5.27149 9.08077V8.55578C5.27107 8.1087 5.35925 7.66597 5.53096 7.25318C5.70266 6.84038 5.95447 6.46571 6.27183 6.15081L6.74011 5.68259C7.47064 4.95179 8.74762 4.95179 9.47842 5.68259L10.947 7.14393C11.1275 7.32326 11.2705 7.53663 11.3679 7.77167C11.4653 8.0067 11.5151 8.25874 11.5144 8.51316C11.5127 9.02644 11.3089 9.51839 10.947 9.88239L10.8121 10.0171C10.6745 10.1551 10.5655 10.3189 10.4912 10.499C10.417 10.6792 10.379 10.8722 10.3794 11.0671C10.3809 11.4602 10.5362 11.8371 10.8121 12.1171L11.8763 13.1812C12.4298 13.7345 13.4228 13.7345 13.9834 13.1812L14.118 13.0464C14.8488 12.3156 16.1257 12.3156 16.8565 13.0464L18.3249 14.5221C19.081 15.2783 19.081 16.5042 18.3249 17.2603L17.8569 17.7286C17.5411 18.0468 17.1653 18.2991 16.7512 18.4708C16.3371 18.6426 15.893 18.7303 15.4447 18.7289ZM8.10913 6.24292C7.89642 6.24266 7.69232 6.32691 7.54173 6.47713L7.07351 6.94541C6.86194 7.15535 6.69406 7.40512 6.57957 7.68031C6.46509 7.9555 6.40627 8.25065 6.4065 8.5487V9.08077C6.41049 13.7807 10.2198 17.59 14.9196 17.5939H15.4447C15.7427 17.5942 16.0379 17.5353 16.3131 17.4209C16.5882 17.3064 16.838 17.1385 17.0479 16.927L17.5162 16.4587C17.5909 16.3843 17.6501 16.2958 17.6905 16.1985C17.7309 16.1011 17.7517 15.9967 17.7517 15.8913C17.7517 15.6783 17.6671 15.4741 17.5162 15.3237L16.0549 13.8551C15.7371 13.5525 15.2377 13.5525 14.9196 13.8551L14.785 13.99C13.7601 15.0138 12.0995 15.0138 11.0746 13.99L10.0105 12.9258C9.51985 12.4316 9.24446 11.7635 9.24436 11.0671C9.24382 10.7232 9.31123 10.3826 9.4427 10.0649C9.57418 9.74711 9.76713 9.45846 10.0105 9.21549L10.1454 9.08077C10.2949 8.92963 10.3789 8.72575 10.3794 8.51316C10.3798 8.30033 10.2956 8.09623 10.1454 7.94555L8.67674 6.47713C8.52607 6.3269 8.3219 6.24266 8.10913 6.24292Z" fill="#1F4634"/>
</svg>
