<svg xmlns="http://www.w3.org/2000/svg" viewBox="0 0 26 26"><path d="M23.6 13.2q-.5-1.9-2.4-2.2-4.1-.4-8.2-.3-4.1 0-8.2.3-1.9.3-2.4 2.2-.5 2.4-.4 5.2-.1 2.6.4 5.1.5 1.9 2.4 2.2 4.1.4 8.2.3 4.1 0 8.2-.3 1.9-.3 2.4-2.2.5-2.5.4-5.1.1-2.7-.4-5.2M8.3 14.5H6.7v8.4H5.2v-8.4H3.7V13h4.6zm4 8.4H11V22q-.8.9-1.5.9t-.9-.6l-.1-1v-5.8h1.3v5.9q0 .3.3.3.4 0 .9-.6v-5.6h1.3zm5-2.2-.1 1.5q-.3.8-1 .8-.8 0-1.4-.8v.7h-1.4V13h1.4v3.2q.6-.9 1.3-.8 1 0 1.1.8l.1 1.5zm5-1.2h-2.6v1.3q0 1 .7 1 .4 0 .6-.5v-1h1.3v1.1q0 .5-.3.8-.6.8-1.6.8t-1.6-.8q-.4-.5-.4-1.7V18q-.1-1.2.4-1.8t1.6-.7q1 0 1.5.7t.4 1.8z"/><path d="M20.4 16.7q-.7 0-.7 1v.7H21v-.7q0-1-.6-1m-5 0q-.3 0-.6.3v4.5l.6.3q.6 0 .6-1v-3.1q0-1-.6-1m.8-6.7q.7 0 1.5-.9v.8H19V2.5h-1.3v5.7q-.5.6-.8.6t-.4-.3v-6h-1.3v5.9l.1 1q.2.7.9.6M6.8 6v4h1.5V6l1.8-6H8.6l-1 3.9-1-3.9H5l1 2.8zm5.3 4q1 0 1.6-.7.4-.6.4-1.8V5q0-1.1-.4-1.7-.7-.8-1.6-.8t-1.6.8q-.3.6-.4 1.7v2.6q0 1.2.4 1.8.7.7 1.6.7m-.6-5.3q0-1 .6-1t.6 1v3q0 1.2-.6 1.1t-.6-1z"/></svg>